# xmcd
#
# Track frame offsets:
#	150
#	67201
#	154294
#	207129
#	239808
#	265994
#	276767
#
# Disc length: 4108 seconds
#
# Revision: 0
# Processed by: cddbd v1.5.2PL0 Copyright (c) Steve Scherf et al.
# Submitted via: audiograbber 1.83.01
#
DISCID=6f100a07
DTITLE=Grateful Dead - 94-06-19 Autzen Stadium, Eugene OR
DYEAR=1900
DGENRE=
TTITLE0=Drums
TTITLE1=Space
TTITLE2=The Other One
TTITLE3=Wharf Rat
TTITLE4=Good Lovin'
TTITLE5=Crowd
TTITLE6=Knockin' On Heaven's Door
EXTD=
EXTT0=
EXTT1=
EXTT2=
EXTT3=
EXTT4=
EXTT5=
EXTT6=
PLAYORDER=
